<svg xmlns="http://www.w3.org/2000/svg" width="256" height="256" fill="none" viewBox="0 0 256 256">
  <defs>
    <linearGradient id="bg" x1="28" x2="224" y1="24" y2="232" gradientUnits="userSpaceOnUse">
      <stop stop-color="#1C6C5A" />
      <stop offset="1" stop-color="#123C34" />
    </linearGradient>
    <linearGradient id="tile" x1="128" x2="128" y1="44" y2="212" gradientUnits="userSpaceOnUse">
      <stop stop-color="#FFFDF6" />
      <stop offset=".55" stop-color="#F9EEDC" />
      <stop offset="1" stop-color="#EAD9B3" />
    </linearGradient>
    <filter id="shadow" width="160" height="180" x="48" y="44" color-interpolation-filters="sRGB" filterUnits="userSpaceOnUse">
      <feFlood flood-opacity="0" result="BackgroundImageFix" />
      <feColorMatrix in="SourceAlpha" result="hardAlpha" values="0 0 0 0 0 0 0 0 0 0 0 0 0 0 0 0 0 0 127 0" />
      <feOffset dy="14" />
      <feGaussianBlur stdDeviation="12" />
      <feColorMatrix values="0 0 0 0 0.03 0 0 0 0 0.07 0 0 0 0 0.06 0 0 0 0.28 0" />
      <feBlend in2="BackgroundImageFix" result="effect1_dropShadow_0_1" />
      <feBlend in="SourceGraphic" in2="effect1_dropShadow_0_1" result="shape" />
    </filter>
  </defs>

  <rect width="256" height="256" rx="64" fill="url(#bg)" />
  <circle cx="50" cy="42" r="46" fill="#9BE9D1" fill-opacity=".14" />
  <circle cx="208" cy="212" r="54" fill="#081713" fill-opacity=".38" />
  <circle cx="128" cy="128" r="84" stroke="#D4A35E" stroke-opacity=".16" stroke-width="4.5" />

  <g filter="url(#shadow)">
    <rect width="116" height="156" x="70" y="40" fill="url(#tile)" rx="26" />
    <rect width="116" height="156" x="70" y="40" stroke="#D6A15B" stroke-width="6" rx="26" />
    <rect width="94" height="134" x="81" y="51" stroke="#FFF" stroke-opacity=".28" stroke-width="2.5" rx="20" />
    <path fill="#FFF" fill-opacity=".42" d="M70 50c0-5.523 4.477-10 10-10h46c25.405 0 46 20.595 46 46v8h-54c-26.51 0-48-21.49-48-48v4Z" />

    <rect width="18" height="100" x="96" y="68" fill="#E63F32" rx="4" />
    <rect width="18" height="100" x="142" y="68" fill="#E63F32" rx="4" />
    <rect width="64" height="16" x="96" y="68" fill="#E63F32" rx="4" />
    <rect width="64" height="16" x="96" y="114" fill="#E63F32" rx="4" />
    <rect width="18" height="90" x="119" y="78" fill="#E63F32" rx="4" />

    <ellipse cx="92" cy="72" fill="#FFF" fill-opacity=".18" rx="18" ry="10" />
  </g>
</svg>
