<svg width="320" height="320" viewBox="0 0 320 320" fill="none" xmlns="http://www.w3.org/2000/svg">
  <defs>
    <linearGradient id="mirrorBg" x1="42" y1="28" x2="282" y2="294" gradientUnits="userSpaceOnUse">
      <stop stop-color="#DDF4FF"/>
      <stop offset="0.5" stop-color="#A8D9FF"/>
      <stop offset="1" stop-color="#FFC4DE"/>
    </linearGradient>
    <linearGradient id="mirrorBody" x1="104" y1="201" x2="219" y2="286" gradientUnits="userSpaceOnUse">
      <stop stop-color="#82C4FF"/>
      <stop offset="1" stop-color="#7382FF"/>
    </linearGradient>
    <linearGradient id="mirrorCollar" x1="119" y1="214" x2="201" y2="250" gradientUnits="userSpaceOnUse">
      <stop stop-color="#FFF4FF"/>
      <stop offset="1" stop-color="#FFD0EC"/>
    </linearGradient>
  </defs>
  <circle cx="160" cy="160" r="138" fill="url(#mirrorBg)" stroke="#554247" stroke-width="10"/>
  <circle cx="160" cy="160" r="118" fill="none" stroke="rgba(255,255,255,0.72)" stroke-width="6" stroke-dasharray="16 12"/>
  <path d="M66 88C84 72 106 62 131 57" stroke="#73C7FF" stroke-width="9" stroke-linecap="round"/>
  <path d="M233 58C252 64 268 75 281 91" stroke="#FFD1EA" stroke-width="9" stroke-linecap="round"/>
  <path d="M57 204C69 189 88 180 110 178" stroke="#FFE7A5" stroke-width="9" stroke-linecap="round"/>
  <path d="M214 250C235 241 252 226 265 208" stroke="#E5F3FF" stroke-width="9" stroke-linecap="round"/>
  <g stroke="#554247" stroke-width="5" stroke-linecap="round" stroke-linejoin="round">
    <path d="M86 74L90 86L102 90L90 94L86 106L82 94L70 90L82 86L86 74Z" fill="#FFF9C7"/>
    <path d="M235 70L239 82L251 86L239 90L235 102L231 90L219 86L231 82L235 70Z" fill="#FFF3FF"/>
    <path d="M252 108L258 124L274 130L258 136L252 152L246 136L230 130L246 124L252 108Z" fill="#FF9FD2"/>
  </g>
  <path
    d="M96 279C101 232 124 203 160 203C196 203 219 232 224 279H96Z"
    fill="url(#mirrorBody)"
    stroke="#554247"
    stroke-width="7"
    stroke-linejoin="round"
  />
  <path
    d="M115 216C127 226 142 232 160 232C178 232 193 226 205 216L212 229C198 243 180 251 160 251C140 251 122 243 108 229L115 216Z"
    fill="url(#mirrorCollar)"
    stroke="#554247"
    stroke-width="6"
    stroke-linejoin="round"
  />
  <path d="M136 205C143 212 151 215 160 215C169 215 177 212 184 205" stroke="#FFF8FF" stroke-width="6" stroke-linecap="round"/>
  <path
    d="M100 144C104 98 131 72 163 72C195 72 222 98 220 144C207 129 195 123 180 121C170 108 157 103 142 103C124 103 110 113 100 144Z"
    fill="#5D69D8"
    stroke="#554247"
    stroke-width="7"
    stroke-linejoin="round"
  />
  <path d="M118 145C118 110 136 84 160 84C184 84 202 110 202 145C202 181 184 214 160 214C136 214 118 181 118 145Z" fill="#FFE1CF" stroke="#554247" stroke-width="7"/>
  <path d="M116 124C119 98 139 78 160 78C181 78 201 98 204 124C193 116 179 111 160 111C141 111 127 116 116 124Z" fill="#4050A6" stroke="#554247" stroke-width="7" stroke-linejoin="round"/>
  <path d="M130 131C138 127 146 126 153 128" stroke="#554247" stroke-width="8" stroke-linecap="round"/>
  <path d="M168 128C175 126 183 127 191 131" stroke="#554247" stroke-width="8" stroke-linecap="round"/>
  <circle cx="141" cy="149" r="6.5" fill="#32262A"/>
  <circle cx="181" cy="149" r="6.5" fill="#32262A"/>
  <circle cx="129" cy="168" r="7.8" fill="#FFBDD4" fill-opacity="0.7"/>
  <circle cx="193" cy="168" r="7.8" fill="#FFBDD4" fill-opacity="0.7"/>
  <path d="M157 159C159 161 161 161 163 159" stroke="#C18895" stroke-width="4" stroke-linecap="round"/>
  <path d="M148 180C156 186 164 186 172 180" stroke="#B66D92" stroke-width="6" stroke-linecap="round"/>
  <path d="M188 92L202 76L212 92L204 105L188 92Z" fill="#FFD67B" stroke="#554247" stroke-width="6" stroke-linejoin="round"/>
  <path d="M200 71L203 80L212 83L203 86L200 95L197 86L188 83L197 80L200 71Z" fill="#FFF5D9" stroke="#554247" stroke-width="4" stroke-linecap="round" stroke-linejoin="round"/>
</svg>
