<svg width="320" height="320" viewBox="0 0 320 320" fill="none" xmlns="http://www.w3.org/2000/svg">
  <defs>
    <linearGradient id="bloomBg" x1="36" y1="28" x2="288" y2="292" gradientUnits="userSpaceOnUse">
      <stop stop-color="#FFF7C8"/>
      <stop offset="0.48" stop-color="#FFD98B"/>
      <stop offset="1" stop-color="#FFA772"/>
    </linearGradient>
    <linearGradient id="bloomBody" x1="103" y1="200" x2="222" y2="286" gradientUnits="userSpaceOnUse">
      <stop stop-color="#7AE28D"/>
      <stop offset="1" stop-color="#34B668"/>
    </linearGradient>
    <linearGradient id="bloomScarf" x1="117" y1="205" x2="202" y2="246" gradientUnits="userSpaceOnUse">
      <stop stop-color="#FFF5EA"/>
      <stop offset="1" stop-color="#FFF0B5"/>
    </linearGradient>
  </defs>
  <circle cx="160" cy="160" r="138" fill="url(#bloomBg)" stroke="#604440" stroke-width="10"/>
  <circle cx="160" cy="160" r="118" fill="none" stroke="rgba(255,255,255,0.72)" stroke-width="6" stroke-dasharray="16 12"/>
  <path d="M56 98C81 74 112 60 148 61" stroke="#6CCB72" stroke-width="9" stroke-linecap="round"/>
  <path d="M232 74C250 82 265 96 275 113" stroke="#FFB363" stroke-width="9" stroke-linecap="round"/>
  <path d="M264 198C255 220 240 238 217 253" stroke="#F9EAA5" stroke-width="9" stroke-linecap="round"/>
  <path d="M70 228C84 242 100 252 118 258" stroke="#FFF4DE" stroke-width="9" stroke-linecap="round"/>
  <g stroke="#604440" stroke-width="5" stroke-linecap="round" stroke-linejoin="round">
    <path d="M88 80L92 92L104 96L92 100L88 112L84 100L72 96L84 92L88 80Z" fill="#FFF4B5"/>
    <path d="M246 73C235 84 233 98 239 111C253 107 262 94 261 80C255 76 251 73 246 73Z" fill="#84DA8A"/>
    <path d="M249 193L258 203L272 200L265 213L273 226L258 223L249 234L247 219L234 213L247 208L249 193Z" fill="#FFF2D9"/>
  </g>
  <path
    d="M95 279C101 230 126 202 160 202C194 202 219 230 225 279H95Z"
    fill="url(#bloomBody)"
    stroke="#604440"
    stroke-width="7"
    stroke-linejoin="round"
  />
  <path
    d="M118 213C131 224 145 230 160 230C175 230 189 224 202 213L210 228C196 242 179 250 160 250C141 250 124 242 110 228L118 213Z"
    fill="url(#bloomScarf)"
    stroke="#604440"
    stroke-width="6"
    stroke-linejoin="round"
  />
  <path d="M160 210C144 210 134 221 132 238H188C186 221 176 210 160 210Z" fill="#FFB16D" stroke="#604440" stroke-width="6" stroke-linejoin="round"/>
  <path
    d="M95 136C101 95 128 73 160 73C192 73 220 95 225 136C214 126 204 121 188 120C176 106 160 101 143 101C124 101 107 110 95 136Z"
    fill="#F08B42"
    stroke="#604440"
    stroke-width="7"
    stroke-linejoin="round"
  />
  <path d="M134 78C142 57 160 46 183 49C182 70 167 86 145 90L134 78Z" fill="#73D27B" stroke="#604440" stroke-width="6" stroke-linejoin="round"/>
  <path d="M198 74C212 62 230 61 244 72C238 89 223 97 207 95L198 74Z" fill="#FFD36C" stroke="#604440" stroke-width="6" stroke-linejoin="round"/>
  <path
    d="M101 149C101 112 126 84 160 84C194 84 219 112 219 149C219 186 194 213 160 213C126 213 101 186 101 149Z"
    fill="#FFDAB7"
    stroke="#604440"
    stroke-width="7"
  />
  <path d="M128 132C137 127 145 126 152 129" stroke="#604440" stroke-width="8" stroke-linecap="round"/>
  <path d="M170 129C177 126 185 127 193 132" stroke="#604440" stroke-width="8" stroke-linecap="round"/>
  <circle cx="139" cy="150" r="6.5" fill="#3F2C29"/>
  <circle cx="182" cy="150" r="6.5" fill="#3F2C29"/>
  <circle cx="126" cy="168" r="8" fill="#FFBEAB" fill-opacity="0.68"/>
  <circle cx="194" cy="168" r="8" fill="#FFBEAB" fill-opacity="0.68"/>
  <path d="M157 159C159 161 161 161 163 159" stroke="#C27E70" stroke-width="4" stroke-linecap="round"/>
  <ellipse cx="160" cy="178" rx="11" ry="8.5" fill="#F2907F" stroke="#604440" stroke-width="5"/>
  <path d="M154 178C157 181 163 181 166 178" stroke="#FFF8F1" stroke-width="3.5" stroke-linecap="round"/>
  <path d="M123 238C135 249 147 254 160 254C173 254 185 249 197 238" stroke="#F4FFF0" stroke-width="8" stroke-linecap="round"/>
</svg>
